<svg xmlns="http://www.w3.org/2000/svg" viewBox="0 0 32 32" fill="none">
  <!-- Background circle with app's primary color -->
  <circle cx="16" cy="16" r="15" fill="#ff6b35" stroke="#e55a2b" stroke-width="2"/>
  
  <!-- Exact Lucide React ChefHat icon paths -->
  <g transform="translate(4, 4)" fill="none" stroke="white" stroke-width="2" stroke-linecap="round" stroke-linejoin="round">
    <path d="M6 13.87A4 4 0 0 1 7.41 6a5.11 5.11 0 0 1 1.05-1.54 5 5 0 0 1 7.08 0A5.11 5.11 0 0 1 16.59 6 4 4 0 0 1 18 13.87V21a2 2 0 0 1-2 2H8a2 2 0 0 1-2-2Z"/>
    <line x1="6" y1="16" x2="18" y2="16"/>
  </g>
</svg>
